<svg width="160" height="48" viewBox="0 0 160 48" fill="none" xmlns="http://www.w3.org/2000/svg">
  <defs>
    <linearGradient id="grad-a" x1="12" y1="6" x2="52" y2="46" gradientUnits="userSpaceOnUse">
      <stop stop-color="#0EA5E9"/>
      <stop offset="1" stop-color="#10B981"/>
    </linearGradient>
    <linearGradient id="grad-b" x1="0" y1="0" x2="0" y2="48" gradientUnits="userSpaceOnUse">
      <stop stop-color="#0B1222" stop-opacity="0.16"/>
      <stop offset="1" stop-color="#0B1222" stop-opacity="0.04"/>
    </linearGradient>
  </defs>
  <rect x="4" y="4" width="72" height="40" rx="12" fill="url(#grad-b)"/>
  <rect x="8" y="8" width="64" height="32" rx="10" fill="#0F172A" opacity="0.85"/>
  <path d="M30 15.5C30.8 14.7 31.9 14.2 33.2 14.2H39.5C41.9 14.2 43.8 16.1 43.8 18.5V29.5C43.8 31.9 41.9 33.8 39.5 33.8H33.2C30.8 33.8 28.9 31.9 28.9 29.5V18.5C28.9 17.2 29.4 16 30.2 15.2L30 15.5Z" fill="url(#grad-a)"/>
  <path d="M24.2 18.6C24.2 16.2 26.1 14.3 28.5 14.3H32.8C35.2 14.3 37.1 16.2 37.1 18.6V29.4C37.1 31.8 35.2 33.7 32.8 33.7H28.5C26.1 33.7 24.2 31.8 24.2 29.4V18.6Z" fill="#0F172A"/>
  <path d="M33.2 19.5C33.2 18.7 33.8 18.1 34.6 18.1H38C38.8 18.1 39.4 18.7 39.4 19.5V28.5C39.4 29.3 38.8 29.9 38 29.9H34.6C33.8 29.9 33.2 29.3 33.2 28.5V19.5Z" fill="#E0F2FE"/>
  <path d="M46.8 14.4H51.2C53.4 14.4 55.2 16.2 55.2 18.4V29.6C55.2 31.8 53.4 33.6 51.2 33.6H46.8V14.4Z" fill="#F8FAFC" opacity="0.9"/>
  <rect x="48.6" y="18.8" width="4.4" height="1.4" rx="0.7" fill="#0EA5E9"/>
  <rect x="48.6" y="22.2" width="4.4" height="1.4" rx="0.7" fill="#10B981"/>
  <rect x="48.6" y="25.6" width="4.4" height="1.4" rx="0.7" fill="#94A3B8"/>
  <text x="86" y="30" fill="#0F172A" font-family="Manrope, 'Plus Jakarta Sans', system-ui, sans-serif" font-size="20" font-weight="800" letter-spacing="-0.04em">Hospiline</text>
  <text x="86" y="18" fill="#0EA5E9" font-family="Manrope, 'Plus Jakarta Sans', system-ui, sans-serif" font-size="9" font-weight="700" letter-spacing="0.12em">HEALTH DESK</text>
</svg>
